<?xml version="1.0" encoding="UTF-8" standalone="no"?>
<!-- Created with Inkscape (http://www.inkscape.org/) -->

<svg
   xmlns:dc="http://purl.org/dc/elements/1.1/"
   xmlns:cc="http://creativecommons.org/ns#"
   xmlns:rdf="http://www.w3.org/1999/02/22-rdf-syntax-ns#"
   xmlns:svg="http://www.w3.org/2000/svg"
   xmlns="http://www.w3.org/2000/svg"
   xmlns:sodipodi="http://sodipodi.sourceforge.net/DTD/sodipodi-0.dtd"
   xmlns:inkscape="http://www.inkscape.org/namespaces/inkscape"
   width="65mm"
   height="65mm"
   viewBox="0 0 65 64.999999"
   version="1.1"
   id="svg4644"
   sodipodi:docname="50d.svg"
   inkscape:export-filename="/home/rso/workspace/rene/wstation/resources/icons/png/05d.png"
   inkscape:export-xdpi="24.190477"
   inkscape:export-ydpi="24.190477"
   inkscape:version="0.92.3 (2405546, 2018-03-11)">
  <defs
     id="defs4638" />
  <sodipodi:namedview
     id="base"
     pagecolor="#ffffff"
     bordercolor="#666666"
     borderopacity="1.0"
     inkscape:pageopacity="0.0"
     inkscape:pageshadow="2"
     inkscape:zoom="3.3174679"
     inkscape:cx="99.366604"
     inkscape:cy="122.83465"
     inkscape:document-units="mm"
     inkscape:current-layer="layer1"
     showgrid="true"
     inkscape:window-width="1920"
     inkscape:window-height="996"
     inkscape:window-x="0"
     inkscape:window-y="28"
     inkscape:window-maximized="1"
     fit-margin-top="0"
     fit-margin-left="0"
     fit-margin-right="0"
     fit-margin-bottom="0">
    <inkscape:grid
       type="xygrid"
       id="grid4646"
       originx="-152.36485"
       originy="-186.80649" />
  </sodipodi:namedview>
  <metadata
     id="metadata4641">
    <rdf:RDF>
      <cc:Work
         rdf:about="">
        <dc:format>image/svg+xml</dc:format>
        <dc:type
           rdf:resource="http://purl.org/dc/dcmitype/StillImage" />
        <dc:title />
      </cc:Work>
    </rdf:RDF>
  </metadata>
  <g
     inkscape:label="Layer 1"
     inkscape:groupmode="layer"
     id="layer1"
     transform="translate(-76.182428,-139.62641)">
    <path
       style="fill:#808080;stroke:none;stroke-width:1.84275579;stroke-linecap:round;stroke-miterlimit:4;stroke-dasharray:none;stroke-opacity:1;fill-opacity:1"
       d="m 103.45209,140.63122 a 11.906245,8.9845852 0 0 0 -11.906257,8.98459 11.906245,8.9845852 0 0 0 0.270785,1.8557 12.486,10.515797 0 0 0 -1.560629,-0.0926 12.486,10.515797 0 0 0 -12.48606,10.51564 12.486,10.515797 0 0 0 12.48606,10.51609 12.486,10.515797 0 0 0 1.560629,-0.0969 12.486,10.515798 0 0 0 7.420219,2.07373 12.486,10.515798 0 0 0 5.853913,-1.23582 12.486,10.515798 0 0 0 8.70128,2.98843 12.486,10.515798 0 0 0 9.17773,-3.40475 12.486,8.3283521 0 0 0 3.97909,0.44088 12.486,8.3283521 0 0 0 12.48606,-8.32828 12.486,8.3283521 0 0 0 -11.20862,-8.28398 8.6209697,7.2606413 0 0 0 0.20722,-1.56002 8.6209697,7.2606413 0 0 0 -8.62118,-7.26093 8.6209697,7.2606413 0 0 0 -4.50928,1.07964 11.906245,8.9845852 0 0 0 -11.85096,-8.19142 z"
       id="path4727"
       inkscape:connector-curvature="0" />
    <g
       id="g830">
      <path
         sodipodi:nodetypes="czszzzzzc"
         inkscape:connector-curvature="0"
         id="path11"
         d="m 78.598828,183.13818 c 0,0 5.291667,-3.69484 7.441406,-1.84743 2.149739,1.84741 5.110279,-1.18378 7.441407,0 3.63802,1.84743 4.630214,-1.84743 7.441409,0 2.81119,1.84743 4.13411,-1.84743 7.4414,0 3.30729,1.84743 4.96094,-1.84743 7.44141,0 2.48047,1.84743 5.1263,1.84743 7.44141,0 2.31511,-1.84743 5.62239,3.69485 7.4414,0 1.81901,-3.69485 7.44141,0 7.44141,0"
         style="fill:none;stroke:#808080;stroke-width:2;stroke-linecap:round;stroke-linejoin:miter;stroke-miterlimit:4;stroke-dasharray:none;stroke-opacity:1" />
      <path
         sodipodi:nodetypes="czszzzzzc"
         inkscape:connector-curvature="0"
         id="path11-3"
         d="m 78.33425,188.31099 c 0,0 5.291667,-3.69484 7.441406,-1.84743 2.149739,1.84742 5.110279,-1.18378 7.441407,0 3.63802,1.84743 4.630214,-1.84742 7.441407,0 2.81121,1.84743 4.13413,-1.84742 7.44145,0 3.30729,1.84743 4.96095,-1.84742 7.44141,0 2.48048,1.84743 5.1263,1.84743 7.44142,0 2.31511,-1.84742 5.62238,3.69486 7.44139,0 1.81901,-3.69485 7.44142,0 7.44142,0"
         style="fill:none;stroke:#808080;stroke-width:2;stroke-linecap:round;stroke-linejoin:miter;stroke-miterlimit:4;stroke-dasharray:none;stroke-opacity:1" />
      <path
         sodipodi:nodetypes="czszzzzzc"
         inkscape:connector-curvature="0"
         id="path11-6"
         d="m 78.598753,193.11425 c 0,0 5.29164,-3.69483 7.441358,-1.84742 2.149728,1.84741 5.11025,-1.18378 7.441368,0 3.637999,1.84742 4.630193,-1.84743 7.441371,0 2.81119,1.84742 4.13411,-1.84743 7.4414,0 3.30729,1.84742 4.96094,-1.84743 7.44141,0 2.48047,1.84742 5.1263,1.84742 7.44141,0 2.31511,-1.84743 5.62239,3.69485 7.4414,0 1.81901,-3.69486 7.44141,0 7.44141,0"
         style="fill:none;stroke:#808080;stroke-width:2;stroke-linecap:round;stroke-linejoin:miter;stroke-miterlimit:4;stroke-dasharray:none;stroke-opacity:1" />
      <path
         sodipodi:nodetypes="czszzzzzc"
         inkscape:connector-curvature="0"
         id="path11-3-7"
         d="m 78.334173,198.28707 c 0,0 5.29164,-3.69484 7.441368,-1.84743 2.149728,1.84741 5.110253,-1.18378 7.441358,0 3.637999,1.84743 4.630196,-1.84742 7.441371,0 2.81121,1.84743 4.13413,-1.84742 7.44145,0 3.30729,1.84743 4.96095,-1.84742 7.44141,0 2.48048,1.84743 5.1263,1.84743 7.44142,0 2.31511,-1.84742 5.62238,3.69486 7.44139,0 1.81901,-3.69485 7.44142,0 7.44142,0"
         style="fill:none;stroke:#808080;stroke-width:2;stroke-linecap:round;stroke-linejoin:miter;stroke-miterlimit:4;stroke-dasharray:none;stroke-opacity:1" />
    </g>
  </g>
</svg>
