<?xml version="1.0" encoding="UTF-8" standalone="no"?>
<!-- Generator: Adobe Illustrator 18.0.0, SVG Export Plug-In . SVG Version: 6.00 Build 0)  -->

<svg
   xmlns:dc="http://purl.org/dc/elements/1.1/"
   xmlns:cc="http://creativecommons.org/ns#"
   xmlns:rdf="http://www.w3.org/1999/02/22-rdf-syntax-ns#"
   xmlns:svg="http://www.w3.org/2000/svg"
   xmlns="http://www.w3.org/2000/svg"
   xmlns:sodipodi="http://sodipodi.sourceforge.net/DTD/sodipodi-0.dtd"
   xmlns:inkscape="http://www.inkscape.org/namespaces/inkscape"
   version="1.1"
   id="Capa_1"
   x="0px"
   y="0px"
   viewBox="0 0 276.991 276.991"
   style="enable-background:new 0 0 276.991 276.991;"
   xml:space="preserve"
   sodipodi:docname="wifi.svg"
   inkscape:version="0.92.3 (2405546, 2018-03-11)"
   inkscape:export-filename="/home/rso/workspace/rene/wstation/resources/icons/png/wifi.png"
   inkscape:export-xdpi="8.3179598"
   inkscape:export-ydpi="8.3179598"><metadata
   id="metadata45"><rdf:RDF><cc:Work
       rdf:about=""><dc:format>image/svg+xml</dc:format><dc:type
         rdf:resource="http://purl.org/dc/dcmitype/StillImage" /></cc:Work></rdf:RDF></metadata><defs
   id="defs43">
	
	
	
</defs><sodipodi:namedview
   pagecolor="#ffffff"
   bordercolor="#666666"
   borderopacity="1"
   objecttolerance="10"
   gridtolerance="10"
   guidetolerance="10"
   inkscape:pageopacity="0"
   inkscape:pageshadow="2"
   inkscape:window-width="1920"
   inkscape:window-height="996"
   id="namedview41"
   showgrid="false"
   inkscape:zoom="0.85201325"
   inkscape:cx="138.4955"
   inkscape:cy="138.4955"
   inkscape:window-x="0"
   inkscape:window-y="28"
   inkscape:window-maximized="1"
   inkscape:current-layer="Capa_1"><inkscape:grid
     type="xygrid"
     id="grid1466" /></sodipodi:namedview>

<g
   id="g10">
</g>
<g
   id="g12">
</g>
<g
   id="g14">
</g>
<g
   id="g16">
</g>
<g
   id="g18">
</g>
<g
   id="g20">
</g>
<g
   id="g22">
</g>
<g
   id="g24">
</g>
<g
   id="g26">
</g>
<g
   id="g28">
</g>
<g
   id="g30">
</g>
<g
   id="g32">
</g>
<g
   id="g34">
</g>
<g
   id="g36">
</g>
<g
   id="g38">
</g>
<g
   transform="matrix(0.97475835,0,0,0.97475835,4.752182,4.543503)"
   id="g858"><circle
     style="fill:#808080;fill-opacity:1"
     cx="138.495"
     cy="207.653"
     r="41.493999"
     id="circle2" /><path
     style="fill:#808080;fill-opacity:1"
     d="m 138.495,97 c -35.658,0 -69.337,17.345 -90.09,46.397 -5.921,8.288 -4.001,19.806 4.286,25.726 8.287,5.922 19.807,4.001 25.726,-4.286 13.846,-19.383 36.305,-30.954 60.078,-30.954 23.773,0 46.232,11.571 60.078,30.954 3.6,5.039 9.268,7.724 15.021,7.724 3.709,0 7.455,-1.116 10.704,-3.438 8.287,-5.92 10.207,-17.438 4.286,-25.726 C 207.831,114.345 174.153,97 138.495,97 Z"
     id="path4"
     inkscape:connector-curvature="0" /><path
     style="fill:#808080;fill-opacity:1"
     d="M 272.266,87.509 C 238.189,49.591 189.431,27.844 138.495,27.844 c -50.936,0 -99.694,21.748 -133.77,59.668 -6.808,7.575 -6.186,19.235 1.391,26.043 3.522,3.166 7.929,4.726 12.32,4.726 5.051,-0.001 10.081,-2.063 13.723,-6.116 27.092,-30.146 65.85,-47.438 106.336,-47.438 40.487,0 79.246,17.29 106.338,47.437 6.809,7.575 18.47,8.197 26.044,1.39 7.575,-6.809 8.197,-18.47 1.389,-26.045 z"
     id="path6"
     inkscape:connector-curvature="0" /></g></svg>